<?xml version="1.0" encoding="utf-8"?>
<!-- Generator: Adobe Illustrator 24.0.1, SVG Export Plug-In . SVG Version: 6.00 Build 0)  -->
<svg version="1.1" id="Livello_1" xmlns="http://www.w3.org/2000/svg" xmlns:xlink="http://www.w3.org/1999/xlink" x="0px" y="0px"
	 viewBox="0 0 720 192" style="enable-background:new 0 0 720 192;" xml:space="preserve">
<path d="M476.83,179.15"/>
<path d="M442.82,113.43l-12.6,24.5c7.5,4.1,16.1,6.5,25.3,6.5c2.2,0,4.3-0.1,6.4-0.4l-7.9-27.1
	C450.02,116.73,446.12,115.43,442.82,113.43z"/>
<path d="M430.82,94.93l-20.8,23c4.8,8.4,11.8,15.4,20.3,20.1l12.6-24.5C436.32,109.53,431.72,102.73,430.82,94.93z"/>
<path d="M455.52,117.03c-0.5,0-1,0-1.4,0l7.8,27.1c8.7-1,16.7-4.2,23.6-8.9l-14.6-23.3C466.52,115.03,461.32,117.03,455.52,117.03z"
	/>
<path d="M468.52,70.53c6.7,4.1,11.3,11.2,11.9,19.4l27.5,1.5c-0.1-12.4-4.6-23.9-12-32.8L468.52,70.53z"/>
<path d="M480.62,91.93c0,8-3.8,15.2-9.8,19.8l14.6,23.3c13.6-9.4,22.6-25.2,22.6-43c0-0.2,0-0.4,0-0.6l-27.5-1.5
	C480.52,90.63,480.62,91.23,480.62,91.93z"/>
<path d="M444.32,69.53l-14.6-23.2c-8.5,4.9-15.6,12.1-20.3,20.8l25.9,10.1C437.62,74.03,440.72,71.33,444.32,69.53z"/>
<path d="M430.62,91.93c0-5.5,1.8-10.6,4.7-14.7l-25.9-10.2c-4,7.5-6.3,16-6.3,25c0,9.4,2.5,18.2,6.8,25.8l20.8-23
	C430.62,93.93,430.62,92.93,430.62,91.93z"/>
<path d="M455.52,66.93c3.6,0,7,0.8,10.1,2.1l12.5-24.4c-6.8-3.3-14.5-5.1-22.6-5.1c-9.4,0-18.2,2.5-25.8,6.8l14.6,23.3
	C447.72,67.83,451.52,66.93,455.52,66.93z"/>
<path d="M468.52,70.53l27.5-11.9c-4.9-5.9-11-10.7-17.9-14.1l-12.5,24.4C466.62,69.43,467.62,69.93,468.52,70.53z"/>
<polygon points="171.87,75.89 171.87,67.69 146.67,39.89 143.87,39.89 143.87,89.39 143.87,89.39 "/>
<polygon points="171.87,115.89 143.87,115.89 143.87,145.09 171.87,120.19 "/>
<polygon points="179.37,102.89 184.97,79.89 171.87,79.89 171.87,75.89 144.27,89.39 171.87,105.99 171.87,102.89 "/>
<polygon points="171.87,105.99 143.87,89.39 143.87,89.39 143.87,115.89 171.87,115.89 "/>
<polygon points="171.87,62.89 191.17,62.89 184.17,39.89 146.67,39.89 171.87,67.69 "/>
<path d="M609.74,89.24L609.74,89.24L609.74,89.24z"/>
<polygon points="179.37,102.89 203.57,102.89 196.37,79.89 184.97,79.89 "/>
<polygon points="209.87,62.89 209.87,39.89 184.17,39.89 191.17,62.89 "/>
<polygon points="204.87,102.89 204.87,79.89 196.37,79.89 203.57,102.89 "/>
<polygon points="209.87,122.89 171.87,122.89 171.87,120.19 144.27,144.89 208.87,144.89 167.77,123.69 208.87,144.89 
	209.87,144.89 "/>
<polygon points="676.92,121.93 664.42,121.93 664.42,101.93 686.02,101.93 680.52,78.93 673.92,78.93 654.72,122.03 667.42,143.93 
	672.02,143.93 "/>
<polygon points="637.42,92.13 637.42,143.93 644.92,143.93 654.82,122.13 "/>
<polygon points="673.92,78.93 664.42,78.93 664.42,73.83 637.02,91.93 637.22,91.93 654.72,122.03 "/>
<polygon points="702.42,61.93 702.42,38.93 691.72,38.93 681.62,61.93 "/>
<polygon points="644.92,143.93 667.42,143.93 654.72,122.03 "/>
<polygon points="664.42,61.93 665.52,61.93 642.82,38.93 637.42,38.93 637.42,92.13 664.42,73.83 "/>
<polygon points="676.52,61.93 671.12,38.93 642.82,38.93 665.52,61.93 "/>
<polygon points="702.42,143.93 702.42,121.93 690.52,121.93 695.82,143.93 "/>
<polygon points="698.42,101.93 698.42,78.93 680.52,78.93 686.02,101.93 "/>
<polygon points="672.02,143.93 695.82,143.93 690.52,121.93 676.92,121.93 "/>
<polygon points="681.62,61.93 691.72,38.93 671.12,38.93 676.52,61.93 "/>
<path d="M361.7,116.63c-8,0-14.8-3.3-19.2-8.6l-2.6,31.8c6.4,2.9,13.4,4.6,20.8,4.7l17.5-33.8
	C374.1,114.43,368.3,116.63,361.7,116.63z"/>
<path d="M337.1,92.93l-26.2,12.4c4,15.3,14.8,27.9,29,34.4l2.6-31.8C339.3,103.93,337.3,98.83,337.1,92.93z"/>
<path d="M378.3,110.63l-17.5,33.8c0.3,0,0.6,0,0.9,0c14.6,0,27.7-6,37.2-15.5l-19.6-19.3C379,109.93,378.7,110.23,378.3,110.63z"/>
<path d="M361.7,67.33c7.1,0,13.3,2.5,17.6,6.9l0,0l-10.5-34.3c-2.3-0.3-4.7-0.5-7.1-0.5c-4.8,0-9.4,0.6-13.7,1.8l-2.6,31.8
	C349.6,69.43,355.3,67.33,361.7,67.33z"/>
<path d="M398.7,54.73c-7.9-7.9-18.3-13.2-29.9-14.8l10.6,34.2L398.7,54.73z"/>
<path d="M337.1,91.93c0-7.4,2.8-13.8,7.5-18.2l-30.3-4.2c-3.2,6.8-5,14.4-5,22.4c0,4.6,0.6,9.1,1.7,13.4l26.1-12.4
	C337.1,92.53,337.1,92.23,337.1,91.93z"/>
<path d="M345.4,73.03l2.6-31.8c-14.9,4-27.2,14.5-33.7,28.3l30.3,4.2C344.8,73.53,345.1,73.23,345.4,73.03z"/>
<polygon points="255.06,38.88 237.86,38.88 255.06,48.06 "/>
<polygon points="255.06,51.73 227.06,85.8 227.06,91.81 255.06,88.75 "/>
<polygon points="227.86,145.97 255.06,145.97 255.06,115.07 247.36,109.97 "/>
<polygon points="255.06,48.06 237.86,38.88 227.06,38.88 227.06,85.8 255.06,51.73 "/>
<polygon points="227.06,91.81 227.06,97.32 247.06,110.07 247.06,110.07 247.06,110.07 255.06,115.07 255.06,88.75 "/>
<polygon points="227.06,97.32 227.06,145.97 227.86,145.97 247.16,109.97 "/>
<polygon points="303.39,145.98 303.39,131.76 298.33,145.98 "/>
<polygon points="296.31,145.98 277.54,122.83 274.22,122.83 275.91,145.98 "/>
<polygon points="244.39,123.49 244.39,145.98 261.41,145.98 264.22,139.62 "/>
<polygon points="298.33,145.98 303.39,131.76 303.39,122.83 277.54,122.83 296.31,145.98 "/>
<polygon points="274.22,122.83 271.19,122.83 264.17,139.37 264.17,139.37 264.17,139.37 261.41,145.98 275.91,145.98 "/>
<polygon points="271.19,122.83 244.39,122.83 244.39,123.49 264.22,139.45 "/>
<path d="M39.81,165.89"/>
<path d="M61.92,154.74"/>
<polygon points="102.88,86.68 125.9,93.08 126.5,87.21 106.58,50.51 "/>
<polygon points="106.58,50.51 126.5,87.21 131.19,41.37 122.19,40.05 106.94,46.92 "/>
<polygon points="102.88,86.68 100.25,112.39 107.41,108.48 107.41,108.48 107.41,108.48 125.35,98.47 125.9,93.08 "/>
<polygon points="107.34,108 119.82,144.15 120.49,144.24 125.35,98.46 "/>
<polygon points="116.64,126.4 105.29,137.73 118.1,129.76 "/>
<polygon points="45.22,124.65 39.56,132.97 47.12,132.09 47.12,132.09 47.12,132.09 66.06,129.8 67.25,128.06 "/>
<polygon points="54.12,138.52 41.55,141.61 55.17,139.7 "/>
<polygon points="42.65,50.41 22.72,87.11 23.32,92.99 46.35,86.58 "/>
<polygon points="29.4,144.05 52.06,140.86 48.98,111.78 42.05,107.88 "/>
<polygon points="42.28,46.82 27.03,39.95 18.03,41.27 22.72,87.11 42.65,50.41 "/>
<polygon points="23.32,92.99 23.87,98.37 41.81,108.38 41.81,108.38 41.81,108.38 48.98,112.29 46.35,86.58 "/>
<polygon points="23.87,98.37 28.73,144.15 29.4,144.05 41.88,107.91 "/>
<polygon points="31.12,129.66 43.93,137.63 32.58,126.31 "/>
<polygon points="45.46,125.38 39.18,132.82 46.17,132.92 46.17,132.92 46.17,132.92 63.7,133.1 65.01,131.54 "/>
<path d="M65.1,74.56"/>
<path d="M65.95,64.48"/>
<polygon points="65.1,64.48 46.76,126.31 70,129.96 73.84,121.52 "/>
<polygon points="84.32,64.76 102.66,126.59 79.41,130.24 75.57,121.8 "/>
<polygon points="65.1,64.48 84.32,64.76 75.57,121.8 73.84,121.52 "/>
<polyline points="38.2,106.25 31.12,126.31 38.2,130.24 45.09,109.93 38.11,105.5 "/>
<polygon points="103.08,110.84 111.7,102.13 116.34,132.15 "/>
<polygon points="70.81,115.43 70.81,122.23 80.53,122.13 80.53,114.54 "/>
<path d="M475.87,29.72"/>
<path d="M18.03,41.27c-0.54-2.23-0.54-2.23-0.54-2.23h24.4l0.4,7.78L18.03,41.27z"/>
<polygon points="106.94,46.92 107.34,39.04 131.19,39.04 131.19,41.37 "/>
<polygon points="70,129.96 65.01,144.24 51.94,144.24 51.09,132.97 72.71,124 "/>
<polygon points="76.58,124 85.53,144.24 110.55,144.24 100.85,123.47 "/>
<polygon points="28.73,144.15 55.17,144.24 54.12,138.52 "/>
<path d="M100.25,112.39c-0.46,4.5-0.46,4.5-0.46,4.5l5.51,27.35h15.2l-11.47-37.63L100.25,112.39z"/>
<polygon points="602.24,133.11 622.17,96.42 621.56,90.54 598.54,96.94 "/>
<polygon points="602.61,136.7 617.86,143.57 626.86,142.26 622.17,96.42 602.24,133.11 "/>
<polygon points="621.56,90.54 621.01,85.16 603.07,75.14 603.07,75.14 603.07,75.14 595.91,71.23 598.54,96.94 "/>
<polygon points="621.01,85.16 616.15,39.38 615.49,39.48 603,75.62 "/>
<polygon points="613.76,53.87 600.96,45.89 612.3,57.22 "/>
<polygon points="562.91,55.56 561.73,53.82 542.78,51.54 542.78,51.54 542.78,51.54 535.22,50.65 540.88,58.98 "/>
<polygon points="550.84,43.92 537.21,42.02 549.79,45.11 "/>
<polygon points="542.01,97.04 518.98,90.64 518.38,96.52 538.31,133.21 "/>
<polygon points="537.71,75.74 544.64,71.85 547.73,42.77 525.06,39.57 "/>
<polygon points="538.31,133.21 518.38,96.52 513.69,142.36 522.69,143.67 537.94,136.8 "/>
<polygon points="542.01,97.04 544.64,71.33 537.47,75.24 537.47,75.24 537.47,75.24 519.53,85.26 518.98,90.64 "/>
<polygon points="537.55,75.72 525.06,39.57 524.4,39.48 519.53,85.26 "/>
<polygon points="528.25,57.32 539.59,45.99 526.79,53.96 "/>
<polygon points="560.67,52.08 559.36,50.53 541.83,50.71 541.83,50.71 541.83,50.71 534.84,50.81 541.12,58.24 "/>
<path d="M560.76,109.07"/>
<path d="M561.62,119.15"/>
<polygon points="560.76,119.15 542.42,57.32 565.66,53.67 569.5,62.11 "/>
<polygon points="579.98,118.87 598.32,57.04 575.08,53.39 571.24,61.83 "/>
<polygon points="560.76,119.15 579.98,118.87 571.24,61.83 569.5,62.11 "/>
<polyline points="533.87,77.38 526.79,57.32 533.87,53.39 540.76,73.7 533.77,78.13 "/>
<polygon points="598.75,72.78 607.36,81.49 612.01,51.47 "/>
<polygon points="566.48,68.19 566.48,61.39 576.19,61.49 576.19,69.08 "/>
<path d="M513.69,142.36c-0.54,2.23-0.54,2.23-0.54,2.23h24.4l0.4-7.78L513.69,142.36z"/>
<polygon points="602.61,136.7 603,144.58 626.86,144.58 626.86,142.26 "/>
<polygon points="565.66,53.67 560.67,39.38 547.61,39.38 546.75,50.66 568.37,59.62 "/>
<polygon points="572.24,59.62 581.19,39.38 606.21,39.38 596.51,60.16 "/>
<polygon points="524.4,39.48 550.84,39.38 549.79,45.11 "/>
<path d="M595.91,71.23c-0.46-4.5-0.46-4.5-0.46-4.5l5.51-27.35h15.2l-11.47,37.63L595.91,71.23z"/>
</svg>
